<svg width="16" height="16" viewBox="0 0 61 96" fill="none" xmlns="http://www.w3.org/2000/svg">
<path d="M1.86385 95.903C1.50263 95.903 1.14142 95.7829 0.840402 95.6026C0.298578 95.122 0.117969 94.1607 0.479186 93.4997L22.092 55.7079H6.25865C5.65662 55.7079 4.99439 55.2873 4.75358 54.6865C4.57297 54.2058 4.69338 53.4248 5.1148 53.0042L52.7352 0.91273C53.2168 0.371989 54.0596 0.251824 54.6617 0.672401C55.2637 1.09298 55.5045 1.87405 55.2035 2.53496L38.6477 41.1079H58.8759C59.4779 41.1079 60.3207 41.7087 60.5615 42.2494C60.8023 42.9704 60.6217 43.7515 60.0799 44.2322L3.0077 95.4825C2.70669 95.7829 2.28527 95.903 1.86385 95.903ZM9.38919 52.7639H24.5001C25.0419 52.7639 25.6439 53.1244 25.8847 53.5449C26.1256 53.9655 26.1256 54.6865 25.8847 55.1672L7.3423 87.5516L55.6851 44.112H36.7814C36.2998 44.112 35.5774 43.7515 35.2764 43.3309C34.9754 42.7902 34.9152 42.1894 35.156 41.5885L48.9424 9.50452L9.38919 52.7639Z" fill="#FBECF5"/>
</svg>
