<svg width="16" height="16" viewBox="0 0 63 60" fill="none" xmlns="http://www.w3.org/2000/svg">
<path d="M29.5446 59.6998C45.6407 59.6998 58.6892 46.6513 58.6892 30.5552C58.6892 14.4591 45.6407 1.41064 29.5446 1.41064C13.4485 1.41064 0.400024 14.4591 0.400024 30.5552C0.400024 46.6513 13.4485 59.6998 29.5446 59.6998Z" fill="url(#paint0_radial_528_1495)"/>
<path opacity="0.5" d="M29.5446 59.6998C45.6407 59.6998 58.6892 46.6513 58.6892 30.5552C58.6892 14.4591 45.6407 1.41064 29.5446 1.41064C13.4485 1.41064 0.400024 14.4591 0.400024 30.5552C0.400024 46.6513 13.4485 59.6998 29.5446 59.6998Z" fill="url(#paint1_radial_528_1495)"/>
<path opacity="0.24" d="M29.5446 59.6998C45.6407 59.6998 58.6892 46.6513 58.6892 30.5552C58.6892 14.4591 45.6407 1.41064 29.5446 1.41064C13.4485 1.41064 0.400024 14.4591 0.400024 30.5552C0.400024 46.6513 13.4485 59.6998 29.5446 59.6998Z" fill="url(#paint2_radial_528_1495)"/>
<path opacity="0.24" d="M29.5446 59.6998C45.6407 59.6998 58.6892 46.6513 58.6892 30.5552C58.6892 14.4591 45.6407 1.41064 29.5446 1.41064C13.4485 1.41064 0.400024 14.4591 0.400024 30.5552C0.400024 46.6513 13.4485 59.6998 29.5446 59.6998Z" fill="url(#paint3_radial_528_1495)"/>
<path d="M37.3408 17.5857C37.359 16.4199 38.6341 15.7095 40.8017 15.746C42.6415 15.7824 46.6853 16.8571 49.4176 20.4819C49.9276 21.1559 49.1261 21.502 48.6343 21.0648C46.9403 19.5894 42.3682 17.6404 38.7798 17.9682C37.3408 18.0957 37.3408 17.5857 37.3408 17.5857Z" fill="url(#paint4_linear_528_1495)"/>
<path d="M17.3948 31.5752C17.3948 31.5752 12.5313 31.2655 11.0559 27.6407C10.9648 27.4039 10.9102 27.1671 10.9102 26.9303C10.8919 26.4385 11.3291 25.9102 12.2034 26.3474C17.6316 29.0797 20.6372 27.6043 22.8959 26.566C23.7702 26.1652 24.5899 27.0396 24.3531 27.8411C24.2802 28.0779 24.2438 28.3147 24.1163 28.5332C22.2583 31.9031 17.3948 31.5752 17.3948 31.5752Z" fill="url(#paint5_radial_528_1495)"/>
<path opacity="0.16" d="M34.4084 18.4968H30.0003L35.0095 11.2835C35.2827 10.901 35.3192 10.3909 35.1006 9.97197C34.882 9.55302 34.4448 9.27979 33.9712 9.27979H27.8327C27.1223 9.27979 26.7397 9.84446 26.7397 10.5549C26.7397 11.2653 27.1223 11.8299 27.8327 11.8299H31.5304L26.5211 19.0432C26.2479 19.4257 26.2115 19.9358 26.4301 20.3547C26.6487 20.7737 27.0858 21.0469 27.5594 21.0469H34.3902C35.1006 21.0469 35.4831 20.4822 35.4831 19.7718C35.4831 19.0614 35.1188 18.4968 34.4084 18.4968Z" fill="#612D5B"/>
<path d="M29.5447 50.4107C32.6633 50.4107 35.1914 48.3637 35.1914 45.8387C35.1914 43.3136 32.6633 41.2666 29.5447 41.2666C26.426 41.2666 23.8979 43.3136 23.8979 45.8387C23.8979 48.3637 26.426 50.4107 29.5447 50.4107Z" fill="url(#paint6_radial_528_1495)"/>
<path d="M29.5444 42.6692C31.9671 42.6692 34.08 43.7803 35.1547 45.4015C34.8815 43.0699 32.4771 41.2666 29.5444 41.2666C26.6117 41.2666 24.1891 43.0881 23.9341 45.4015C25.0088 43.7803 27.1218 42.6692 29.5444 42.6692Z" fill="url(#paint7_linear_528_1495)"/>
<path d="M23.9705 26.6758C23.6973 26.4572 23.2966 26.3662 22.8958 26.5483C20.6553 27.5866 17.6316 29.0803 12.2034 26.3297C11.8027 26.1294 11.493 26.1294 11.2744 26.2387C13.2599 28.716 20.8557 30.2096 23.9705 26.6758Z" fill="url(#paint8_linear_528_1495)"/>
<path d="M41.6938 31.5757C41.6938 31.5757 46.5572 31.266 48.0327 27.6412C48.1238 27.4044 48.1784 27.1676 48.1784 26.9308C48.1966 26.439 47.7595 25.9107 46.8851 26.3479C41.457 29.0802 38.4514 27.6047 36.1927 26.5665C35.3184 26.1657 34.4987 27.0401 34.7355 27.8415C34.8084 28.0783 34.8448 28.3151 34.9723 28.5337C36.8303 31.9036 41.6938 31.5757 41.6938 31.5757Z" fill="url(#paint9_radial_528_1495)"/>
<path d="M35.1188 26.6758C35.3921 26.4572 35.7928 26.3662 36.1935 26.5483C38.434 27.5866 41.4578 29.0803 46.8859 26.3297C47.2867 26.1294 47.5963 26.1294 47.8149 26.2387C45.8295 28.716 38.2337 30.2096 35.1188 26.6758Z" fill="url(#paint10_linear_528_1495)"/>
<path d="M21.7486 17.5867C21.7304 16.4209 20.4553 15.7105 18.2877 15.7469C16.4479 15.7834 12.4041 16.8581 9.67179 20.4829C9.16176 21.1569 9.96324 21.503 10.4551 21.0658C12.1491 19.5904 16.7211 17.6413 20.3096 17.9692C21.7486 18.0967 21.7486 17.5867 21.7486 17.5867Z" fill="url(#paint11_linear_528_1495)"/>
<path opacity="0.16" d="M43.443 4.92676L38.1059 12.6319C37.8144 13.0508 37.778 13.5973 38.0148 14.0527C38.2516 14.508 38.7252 14.7813 39.217 14.7813H47.5232C48.27 14.7813 48.7072 14.1619 48.7072 13.4151C48.7072 12.6683 48.27 12.049 47.5232 12.049H41.8218L45.7745 6.34756C45.0277 5.83753 44.2444 5.36393 43.443 4.92676Z" fill="#612D5B"/>
<path opacity="0.24" d="M40.5828 3.57818C39.8906 3.28673 39.162 3.03172 38.4516 2.79492C38.6155 3.2503 38.9981 3.57818 39.5445 3.57818H40.5828Z" fill="#612D5B"/>
<path opacity="0.16" d="M53.4616 13.9067L51.3122 17.0033C51.0571 17.3494 50.9661 17.8048 51.0754 18.2238C51.2393 18.8977 51.8404 19.3349 52.4962 19.3349H52.5326C54.0262 19.3349 55.3195 19.4988 56.7039 19.9542C55.8478 17.7866 54.7549 15.7647 53.4616 13.9067Z" fill="#612D5B"/>
<path d="M33.6793 20.501H26.8485C26.3749 20.501 25.9378 20.246 25.7192 19.8088C25.5006 19.3717 25.537 18.8798 25.8103 18.4973L30.8195 11.284H27.1218C26.4114 11.284 26.0289 10.7194 26.0289 10.009C26.0289 9.29856 26.4114 8.73389 27.1218 8.73389H33.2604C33.734 8.73389 34.1711 8.9889 34.3897 9.42607C34.6083 9.86324 34.5719 10.3551 34.2986 10.7376L29.2894 17.9509H33.6975C34.4079 17.9509 34.7904 18.5155 34.7904 19.2259C34.7904 19.9363 34.3897 20.501 33.6793 20.501Z" fill="url(#paint12_linear_528_1495)"/>
<path d="M46.4306 14.2346H38.1244C37.6143 14.2346 37.1407 13.9613 36.9222 13.5059C36.7036 13.0506 36.7218 12.5041 37.0132 12.0851L43.2793 3.03211H38.434C37.6872 3.03211 37.25 2.41279 37.25 1.66596C37.25 0.919127 37.6872 0.299805 38.434 0.299805H45.8841C46.3941 0.299805 46.8677 0.573035 47.0863 1.02842C47.3049 1.4838 47.2867 2.03026 46.9952 2.44922L40.7109 11.5023H46.4123C47.1592 11.5023 47.5963 12.1216 47.5963 12.8684C47.5963 13.6152 47.1774 14.2346 46.4306 14.2346Z" fill="url(#paint13_linear_528_1495)"/>
<path d="M60.8024 18.5884H51.4032C50.8568 18.5884 50.365 18.2788 50.11 17.8052C49.8549 17.3316 49.8914 16.7487 50.201 16.2933L57.4143 5.91055H51.7675C50.9661 5.91055 50.4925 5.2548 50.4925 4.45332C50.4925 3.65185 50.9661 2.99609 51.7675 2.99609H60.2013C60.7477 2.99609 61.2395 3.30575 61.4945 3.77935C61.7496 4.25295 61.7131 4.83584 61.4035 5.29123L54.1902 15.674H60.8024C61.6038 15.674 62.0774 16.3297 62.0774 17.1312C62.0774 17.9327 61.6038 18.5884 60.8024 18.5884Z" fill="url(#paint14_linear_528_1495)"/>
<defs>
<radialGradient id="paint0_radial_528_1495" cx="0" cy="0" r="1" gradientUnits="userSpaceOnUse" gradientTransform="translate(23.8103 18.7428) scale(35.1591)">
<stop stop-color="#FFE030"/>
<stop offset="1" stop-color="#FFB92E"/>
</radialGradient>
<radialGradient id="paint1_radial_528_1495" cx="0" cy="0" r="1" gradientUnits="userSpaceOnUse" gradientTransform="translate(23.8103 18.7428) scale(27.6613)">
<stop stop-color="#FFEA5F"/>
<stop offset="1" stop-color="#FFBC47" stop-opacity="0"/>
</radialGradient>
<radialGradient id="paint2_radial_528_1495" cx="0" cy="0" r="1" gradientUnits="userSpaceOnUse" gradientTransform="translate(13.6664 37.8046) rotate(-2.7703) scale(12.2589 9.69986)">
<stop stop-color="#FF4C00"/>
<stop offset="0.1542" stop-color="#FF4C00"/>
<stop offset="0.1795" stop-color="#FF4C00"/>
<stop offset="0.3996" stop-color="#FB4C0B" stop-opacity="0.7318"/>
<stop offset="0.7799" stop-color="#EF4B27" stop-opacity="0.2683"/>
<stop offset="1" stop-color="#E74A3A" stop-opacity="0"/>
</radialGradient>
<radialGradient id="paint3_radial_528_1495" cx="0" cy="0" r="1" gradientUnits="userSpaceOnUse" gradientTransform="translate(45.3905 37.8046) rotate(-177.23) scale(12.2589 9.69986)">
<stop stop-color="#FF4C00"/>
<stop offset="0.1542" stop-color="#FF4C00"/>
<stop offset="0.1795" stop-color="#FF4C00"/>
<stop offset="0.3996" stop-color="#FB4C0B" stop-opacity="0.7318"/>
<stop offset="0.7799" stop-color="#EF4B27" stop-opacity="0.2683"/>
<stop offset="1" stop-color="#E74A3A" stop-opacity="0"/>
</radialGradient>
<linearGradient id="paint4_linear_528_1495" x1="43.4801" y1="19.6263" x2="43.5297" y2="16.5578" gradientUnits="userSpaceOnUse">
<stop offset="0.00132565" stop-color="#3C2200"/>
<stop offset="1" stop-color="#7A4400"/>
</linearGradient>
<radialGradient id="paint5_radial_528_1495" cx="0" cy="0" r="1" gradientUnits="userSpaceOnUse" gradientTransform="translate(17.5198 28.8169) rotate(-176.151) scale(5.23787 2.52708)">
<stop offset="0.00132565" stop-color="#7A4400"/>
<stop offset="1" stop-color="#643800"/>
</radialGradient>
<radialGradient id="paint6_radial_528_1495" cx="0" cy="0" r="1" gradientUnits="userSpaceOnUse" gradientTransform="translate(29.1958 46.0993) rotate(70.3551) scale(5.65628 4.33876)">
<stop offset="0.00132565" stop-color="#7A4400"/>
<stop offset="1" stop-color="#643800"/>
</radialGradient>
<linearGradient id="paint7_linear_528_1495" x1="29.5444" y1="39.1026" x2="29.5444" y2="46.5579" gradientUnits="userSpaceOnUse">
<stop offset="0.00132565" stop-color="#3C2200"/>
<stop offset="1" stop-color="#512D00"/>
</linearGradient>
<linearGradient id="paint8_linear_528_1495" x1="16.6912" y1="24.047" x2="18.8331" y2="29.6247" gradientUnits="userSpaceOnUse">
<stop offset="0.00132565" stop-color="#3C2200"/>
<stop offset="1" stop-color="#512D00"/>
</linearGradient>
<radialGradient id="paint9_radial_528_1495" cx="0" cy="0" r="1" gradientUnits="userSpaceOnUse" gradientTransform="translate(41.5686 28.8174) rotate(-3.84889) scale(5.23786 2.52708)">
<stop offset="0.00132565" stop-color="#7A4400"/>
<stop offset="1" stop-color="#643800"/>
</radialGradient>
<linearGradient id="paint10_linear_528_1495" x1="42.3979" y1="24.0468" x2="40.256" y2="29.6244" gradientUnits="userSpaceOnUse">
<stop offset="0.00132565" stop-color="#3C2200"/>
<stop offset="1" stop-color="#512D00"/>
</linearGradient>
<linearGradient id="paint11_linear_528_1495" x1="15.6083" y1="19.6273" x2="15.5588" y2="16.5588" gradientUnits="userSpaceOnUse">
<stop offset="0.00132565" stop-color="#3C2200"/>
<stop offset="1" stop-color="#7A4400"/>
</linearGradient>
<linearGradient id="paint12_linear_528_1495" x1="14.9868" y1="4.53355" x2="35.9345" y2="18.5594" gradientUnits="userSpaceOnUse">
<stop stop-color="#80DAFE"/>
<stop offset="1" stop-color="#7000A3"/>
</linearGradient>
<linearGradient id="paint13_linear_528_1495" x1="36.2146" y1="-1.73868" x2="45.5955" y2="12.8336" gradientUnits="userSpaceOnUse">
<stop stop-color="#80DAFE"/>
<stop offset="1" stop-color="#7000A3"/>
</linearGradient>
<linearGradient id="paint14_linear_528_1495" x1="51.2649" y1="-0.950315" x2="58.6422" y2="18.1758" gradientUnits="userSpaceOnUse">
<stop stop-color="#80DAFE"/>
<stop offset="1" stop-color="#7000A3"/>
</linearGradient>
</defs>
</svg>
